<?xml version="1.0" standalone="no"?><!DOCTYPE svg PUBLIC "-//W3C//DTD SVG 1.1//EN" "http://www.w3.org/Graphics/SVG/1.1/DTD/svg11.dtd"><svg width="260.135710451324" height="304.915625" viewBox="0 0 180 210.9853061110959" class="looka-1j8o68f" version="1.1" xmlns="http://www.w3.org/2000/svg" xmlns:xlink="http://www.w3.org/1999/xlink" style="block-size:304.914px;height:304.914px;inline-size:260.133px;perspective-origin:130.062px 152.453px;touch-action:none;transform-origin:130.066px 152.457px;width:260.133px;"><defs id="SvgjsDefs1274" style="block-size:auto;height:auto;inline-size:auto;overflow-clip-margin:0px;overflow-x:visible;overflow-y:visible;perspective-origin:0px 0px;transform-origin:0px 0px;width:auto;"/><g id="SvgjsG1275" featurekey="symbolFeature-0" transform="matrix(2.1308016191699317,0,0,2.1308016191699317,-6.018973631590071,-2.1308016191699317)" fill="#ee3f37" style="block-size:auto;fill:rgb(238, 63, 55);height:auto;inline-size:auto;overflow-clip-margin:0px;overflow-x:visible;overflow-y:visible;perspective-origin:0px 0px;touch-action:none;transform:matrix(2.1308, 0, 0, 2.1308, -6.01897, -2.1308);transform-origin:0px 0px;user-select:none;width:auto;"><g xmlns="http://www.w3.org/2000/svg" style="block-size:auto;fill:rgb(238, 63, 55);height:auto;inline-size:auto;overflow-clip-margin:0px;overflow-x:visible;overflow-y:visible;perspective-origin:0px 0px;touch-action:none;transform-origin:0px 0px;user-select:none;width:auto;"><path d="M73.7,70.3c-1.1-2.5-2.3-5.3-2.2-8.4c1.8-3.7,2.1-8.4,2.1-13.7c0-8.1-3.4-26.9-34.5-26.9S4.7,40.1,4.7,48.2   c0,5.4,0.3,10,2.1,13.7c0.1,3.1-1.2,5.9-2.2,8.3c-1.8,4.1-4,9.3,3.3,12.6c2,0.9,3.9,1.4,5.6,1.4c1.3,0,2.6-0.3,3.7-0.9c0,0,0,0,0,0   c1.1,2.2,3.4,3.8,7,4.9c1.5,0.4,2.9,0.6,4.2,0.6c2.4,0,4.5-0.7,6.3-2c2.2-1.6,3.6-4.1,4.5-6.5c0.9,2.5,2.3,4.9,4.5,6.5   c1.8,1.4,3.9,2,6.3,2c1.3,0,2.7-0.2,4.2-0.6c3.7-1.1,6-2.6,7-4.9c0,0,0,0,0,0c1.1,0.6,2.3,0.9,3.7,0.9c1.7,0,3.6-0.5,5.6-1.4   C77.8,79.5,75.5,74.4,73.7,70.3z M39.1,24.8C59,24.8,70,33.1,70,48.2c0,12.2,0,20.9-30.9,20.9c-30.9,0-30.9-8.8-30.9-20.9   C8.3,33.1,19.2,24.8,39.1,24.8z M16.5,79.5c-0.2,0.2-0.5,0.4-0.8,0.6c-1.6,0.9-3.7,0.8-6.4-0.5c-4-1.8-3.5-3.3-1.5-7.9   c0.7-1.6,1.5-3.5,2-5.6c2.2,2,5.2,3.5,9.5,4.6c-0.2,0.6-0.5,1.3-0.7,1.9C17.7,75,16.7,77.3,16.5,79.5z M32.5,84.1   c-1.9,1.4-4.3,1.7-7.3,0.8c-2.6-0.7-4.2-1.7-4.8-3c-0.9-1.9,0.3-4.8,1.6-7.8c0.3-0.8,0.7-1.7,1-2.5c3.9,0.7,8.6,1,14.2,1.1   C36.9,76,35.7,81.6,32.5,84.1z M57.9,81.9c-0.6,1.2-2.2,2.2-4.8,3c-3.1,0.9-5.4,0.6-7.3-0.8c-3.5-2.6-4.4-8.4-4.7-11.4   c5.7-0.1,10.3-0.5,14.2-1.1c0.3,0.8,0.7,1.7,1,2.5C57.6,77.1,58.8,80,57.9,81.9z M68.9,79.6c-2.7,1.2-4.8,1.4-6.4,0.5   c-0.3-0.2-0.5-0.4-0.8-0.6c-0.2-2.2-1.2-4.6-2.1-6.9c-0.3-0.6-0.5-1.3-0.7-1.9c4.3-1.1,7.4-2.7,9.5-4.6c0.5,2.1,1.3,3.9,2,5.6   C72.5,76.4,72.9,77.8,68.9,79.6z M30.8,47.6c0,3-2.5,5.5-5.5,5.5s-5.5-2.5-5.5-5.5s2.5-5.5,5.5-5.5S30.8,44.6,30.8,47.6z M53,42.1   c-3,0-5.5,2.5-5.5,5.5s2.5,5.5,5.5,5.5c3,0,5.5-2.5,5.5-5.5S56,42.1,53,42.1z M47,58.9c0.8-0.5,1.1-1.7,0.5-2.5   c-0.5-0.8-1.7-1.1-2.5-0.5c-2.9,1.9-8.9,1.9-11.8,0c-0.8-0.5-2-0.3-2.5,0.5c-0.5,0.8-0.3,2,0.5,2.5c2.1,1.3,4.8,2.1,7.8,2.1   C42.1,61,44.9,60.3,47,58.9z" style="block-size:auto;d:path(&quot;M 73.7 70.3 C 72.6 67.8 71.4 65 71.5 61.9 C 73.3 58.2 73.6 53.5 73.6 48.2 C 73.6 40.1 70.2 21.3 39.1 21.3 S 4.7 40.1 4.7 48.2 C 4.7 53.6 5 58.2 6.8 61.9 C 6.9 65 5.6 67.8 4.6 70.2 C 2.8 74.3 0.599999 79.5 7.9 82.8 C 9.9 83.7 11.8 84.2 13.5 84.2 C 14.8 84.2 16.1 83.9 17.2 83.3 C 17.2 83.3 17.2 83.3 17.2 83.3 C 18.3 85.5 20.6 87.1 24.2 88.2 C 25.7 88.6 27.1 88.8 28.4 88.8 C 30.8 88.8 32.9 88.1 34.7 86.8 C 36.9 85.2 38.3 82.7 39.2 80.3 C 40.1 82.8 41.5 85.2 43.7 86.8 C 45.5 88.2 47.6 88.8 50 88.8 C 51.3 88.8 52.7 88.6 54.2 88.2 C 57.9 87.1 60.2 85.6 61.2 83.3 C 61.2 83.3 61.2 83.3 61.2 83.3 C 62.3 83.9 63.5 84.2 64.9 84.2 C 66.6 84.2 68.5 83.7 70.5 82.8 C 77.8 79.5 75.5 74.4 73.7 70.3 Z M 39.1 24.8 C 59 24.8 70 33.1 70 48.2 C 70 60.4 70 69.1 39.1 69.1 C 8.2 69.1 8.2 60.3 8.2 48.2 C 8.3 33.1 19.2 24.8 39.1 24.8 Z M 16.5 79.5 C 16.3 79.7 16 79.9 15.7 80.1 C 14.1 81 12 80.9 9.3 79.6 C 5.3 77.8 5.8 76.3 7.8 71.7 C 8.5 70.1 9.3 68.2 9.8 66.1 C 12 68.1 15 69.6 19.3 70.7 C 19.1 71.3 18.8 72 18.6 72.6 C 17.7 75 16.7 77.3 16.5 79.5 Z M 32.5 84.1 C 30.6 85.5 28.2 85.8 25.2 84.9 C 22.6 84.2 21 83.2 20.4 81.9 C 19.5 80 20.7 77.1 22 74.1 C 22.3 73.3 22.7 72.4 23 71.6 C 26.9 72.3 31.6 72.6 37.2 72.7 C 36.9 76 35.7 81.6 32.5 84.1 Z M 57.9 81.9 C 57.3 83.1 55.7 84.1 53.1 84.9 C 50 85.8 47.7 85.5 45.8 84.1 C 42.3 81.5 41.4 75.7 41.1 72.7 C 46.8 72.6 51.4 72.2 55.3 71.6 C 55.6 72.4 56 73.3 56.3 74.1 C 57.6 77.1 58.8 80 57.9 81.9 Z M 68.9 79.6 C 66.2 80.8 64.1 81 62.5 80.1 C 62.2 79.9 62 79.7 61.7 79.5 C 61.5 77.3 60.5 74.9 59.6 72.6 C 59.3 72 59.1 71.3 58.9 70.7 C 63.2 69.6 66.3 68 68.4 66.1 C 68.9 68.2 69.7 70 70.4 71.7 C 72.5 76.4 72.9 77.8 68.9 79.6 Z M 30.8 47.6 C 30.8 50.6 28.3 53.1 25.3 53.1 S 19.8 50.6 19.8 47.6 S 22.3 42.1 25.3 42.1 S 30.8 44.6 30.8 47.6 Z M 53 42.1 C 50 42.1 47.5 44.6 47.5 47.6 S 50 53.1 53 53.1 C 56 53.1 58.5 50.6 58.5 47.6 S 56 42.1 53 42.1 Z M 47 58.9 C 47.8 58.4 48.1 57.2 47.5 56.4 C 47 55.6 45.8 55.3 45 55.9 C 42.1 57.8 36.1 57.8 33.2 55.9 C 32.4 55.4 31.2 55.6 30.7 56.4 C 30.2 57.2 30.4 58.4 31.2 58.9 C 33.3 60.2 36 61 39 61 C 42.1 61 44.9 60.3 47 58.9 Z&quot;);fill:rgb(238, 63, 55);height:auto;inline-size:auto;overflow-clip-margin:0px;overflow-x:visible;overflow-y:visible;perspective-origin:0px 0px;transform-origin:0px 0px;user-select:none;width:auto;"/><circle cx="79.1" cy="27.9" r="6.4" style="block-size:auto;cx:79.1px;cy:27.9px;fill:rgb(238, 63, 55);height:auto;inline-size:auto;overflow-clip-margin:0px;overflow-x:visible;overflow-y:visible;perspective-origin:0px 0px;r:6.4px;transform-origin:0px 0px;user-select:none;width:auto;"/><circle cx="83.2" cy="5.1" r="4.1" style="block-size:auto;cx:83.2px;cy:5.1px;fill:rgb(238, 63, 55);height:auto;inline-size:auto;overflow-clip-margin:0px;overflow-x:visible;overflow-y:visible;perspective-origin:0px 0px;r:4.1px;transform-origin:0px 0px;user-select:none;width:auto;"/><circle cx="71" cy="14.6" r="5.4" style="block-size:auto;cx:71px;cy:14.6px;fill:rgb(238, 63, 55);height:auto;inline-size:auto;overflow-clip-margin:0px;overflow-x:visible;overflow-y:visible;perspective-origin:0px 0px;r:5.4px;transform-origin:0px 0px;user-select:none;width:auto;"/></g></g></svg>